<?xml version="1.0" encoding="UTF-8"?>
<svg xmlns="http://www.w3.org/2000/svg" viewBox="0 0 48 48">
  <path fill="#EA4335" d="M24 9.5c3.54 0 6.71 1.22 9.21 3.6l6.85-6.85C35.45 2.54 30.13 0 24 0 14.7 0 6.64 5.47 2.56 13.41l7.98 6.19C12.13 13.18 17.59 9.5 24 9.5z"/>
  <path fill="#34A853" d="M46.1 24.47c0-1.57-.14-3.08-.4-4.53H24v8.58h12.36c-.53 2.84-2.16 5.25-4.6 6.87l7.04 5.47C43.75 36.91 46.1 31.14 46.1 24.47z"/>
  <path fill="#4A90E2" d="M9.54 28.59A14.49 14.49 0 0 1 8.54 24c0-1.59.27-3.14.76-4.59L1.32 13.41A23.97 23.97 0 0 0 0 24c0 3.87.9 7.54 2.5 10.8l7.04-5.47z"/>
  <path fill="#FBBC05" d="M24 48c6.13 0 11.45-2.02 15.26-5.52l-7.04-5.47c-2.04 1.37-4.65 2.16-8.22 2.16-6.41 0-11.87-3.68-14.46-8.9l-7.98 6.19C6.64 42.53 14.7 48 24 48z"/>
</svg>
